<svg xmlns="http://www.w3.org/2000/svg" viewBox="-250.2 655.9 100 100"><path transform="translate(-3.75,0.1)" d="m -172.4,734.3 c -2,-1.5 -4.6,-2 -6.9,-1.3 -2.1,0.6 -3.8,1.9 -4.8,3.8 -1,1.9 -1.3,4 -0.7,6.1 0.4,1.5 2,2.4 3.5,1.9 1.5,-0.4 2.4,-2 1.9,-3.5 -0.2,-0.6 -0.1,-1.2 0.2,-1.8 0.3,-0.6 0.8,-1 1.4,-1.1 0.5,-0.1 1.3,-0.1 2,0.4 1,0.8 1.2,2.2 1.2,3.3 0,4.1 -3.5,7.6 -7.6,7.6 -4.2,0 -7.6,-3.4 -7.6,-7.6 0,-8.5 6.7,-15.4 17.7,-26.8 l 2.1,-2.2 c 11.7,-12.1 19.4,-20 19.4,-30.5 0,-6 -4.1,-11.1 -9.6,-12.7 0,0 -0.1,0 -0.1,0 -34.7,-9.5 -43.9,-12.1 -46.5,-12.7 -0.1,-0.1 -0.3,-0.1 -0.5,-0.2 -1,-0.2 -2.2,-0.4 -3.3,-0.4 -7.2,0 -13.2,6 -13.2,13.2 0,5 2.6,7.7 5.3,8.8 0.2,0.1 0.4,0.2 0.6,0.2 0,0 0.1,0 0.1,0 0,0 0,0 0.1,0 0,0 0,0 0,0 3.5,1 46.1,12.7 46.6,12.8 0.1,0 0.2,0 0.2,0 1.4,0.4 2.8,0.4 4.2,0 2.1,-0.6 3.8,-1.9 4.8,-3.8 1,-1.9 1.3,-4 0.7,-6.1 -0.4,-1.5 -2,-2.4 -3.5,-1.9 -1.5,0.4 -2.4,2 -1.9,3.5 0.2,0.6 0.1,1.3 -0.2,1.8 -0.3,0.6 -0.8,1 -1.4,1.1 -0.5,0.1 -1.3,0.1 -2,-0.4 -1,-0.8 -1.2,-2.2 -1.2,-3.3 0,-4.1 3.5,-7.6 7.6,-7.6 4.2,0 7.6,3.4 7.6,7.6 0,8.2 -7.1,15.5 -17.8,26.6 l -2.1,2.2 c -11.6,12 -19.3,19.9 -19.3,30.7 0,1.6 0.3,3.1 0.8,4.5 -26.1,-7.2 -33.8,-9.3 -36.1,-9.9 -0.1,-0.1 -0.3,-0.1 -0.4,-0.2 -3.3,-0.9 -5.5,-3.9 -5.5,-7.3 0,-8.5 6.7,-15.4 17.7,-26.8 l 2.1,-2.1 c 4,-4.1 7.4,-7.6 10.2,-10.9 1,-1.2 0.9,-3 -0.3,-4 -1.2,-1 -3,-0.9 -4,0.3 -2.8,3.2 -6.1,6.7 -10,10.7 l -2.1,2.1 c -11.6,12 -19.3,19.9 -19.3,30.7 0,5.9 4,11.1 9.6,12.7 0,0 0.1,0 0.1,0 1.8,0.5 46.3,12.7 46.8,12.8 0.1,0 0.1,0 0.2,0 1.1,0.3 2.2,0.4 3.4,0.4 7.2,0 13.2,-6 13.2,-13.2 0.1,-3 -1.2,-5.8 -3.4,-7.5 z m -38,-72.1 c 0.6,0 1.4,0.1 1.9,0.2 0,0 0,0 0,0 1.3,0.4 23.1,6.3 36.4,10 -2.9,2.4 -4.9,6.1 -4.9,10.2 0,0.6 0,1.1 0.1,1.7 -28.1,-7.7 -36.4,-10 -39,-10.7 -0.1,0 -0.2,-0.1 -0.2,-0.1 -1.3,-0.4 -2,-1.7 -2,-3.7 0.1,-4.1 3.6,-7.6 7.7,-7.6 z m 34.8,38.5 c -0.3,0 -0.7,-0.1 -1,-0.2 -2.5,-0.9 -22.3,-6.3 -24.9,-6.9 -1.7,-0.4 -2.7,-2.1 -2.3,-3.7 0.4,-1.7 2.1,-2.7 3.7,-2.3 2.6,0.6 22.5,6.1 25.4,7.1 1.6,0.5 2.5,2.3 1.9,3.9 -0.3,1.3 -1.5,2.1 -2.8,2.1 z m -13.4,5.2 c -0.3,0 -0.7,-0.1 -1,-0.2 -1.8,-0.6 -16.2,-4.6 -18.1,-5 -1.7,-0.4 -2.7,-2.1 -2.3,-3.7 0.4,-1.7 2.1,-2.7 3.7,-2.3 1.9,0.5 16.5,4.4 18.6,5.2 1.6,0.5 2.5,2.3 1.9,3.9 -0.3,1.3 -1.5,2.1 -2.8,2.1 z m -13.4,14.1 c -0.3,0 -0.7,-0.1 -1,-0.2 -1.9,-0.6 -16.2,-4.6 -18.1,-5 -1.7,-0.4 -2.7,-2.1 -2.3,-3.7 0.4,-1.7 2.1,-2.7 3.7,-2.3 1.9,0.5 16.4,4.4 18.6,5.2 1.6,0.5 2.5,2.3 1.9,3.9 -0.3,1.2 -1.5,2.1 -2.8,2.1 z m 13.5,-5.2 c -0.3,0 -0.7,-0.1 -1,-0.2 -2.6,-0.9 -22.3,-6.3 -24.9,-6.9 -1.7,-0.4 -2.7,-2.1 -2.3,-3.7 0.4,-1.7 2.1,-2.7 3.7,-2.3 2.5,0.6 22.4,6 25.4,7.1 1.6,0.5 2.5,2.3 1.9,3.9 -0.3,1.3 -1.5,2.1 -2.8,2.1 z"/></svg>